<?xml version="1.0" encoding="UTF-8" standalone="no"?>
<!-- Created with Inkscape (http://www.inkscape.org/) -->

<svg
   width="50"
   height="50"
   viewBox="0 0 13.229167 13.229167"
   version="1.1"
   id="svg8"
   sodipodi:docname="location_icon.svg"
   inkscape:version="1.1.2 (b8e25be833, 2022-02-05)"
   inkscape:export-filename="/home/albert/Documents/Coding/Albert-C-Ong.github.io/assets/location_icon.png"
   inkscape:export-xdpi="96"
   inkscape:export-ydpi="96"
   xmlns:inkscape="http://www.inkscape.org/namespaces/inkscape"
   xmlns:sodipodi="http://sodipodi.sourceforge.net/DTD/sodipodi-0.dtd"
   xmlns="http://www.w3.org/2000/svg"
   xmlns:svg="http://www.w3.org/2000/svg"
   xmlns:rdf="http://www.w3.org/1999/02/22-rdf-syntax-ns#"
   xmlns:cc="http://creativecommons.org/ns#"
   xmlns:dc="http://purl.org/dc/elements/1.1/">
  <defs
     id="defs2" />
  <sodipodi:namedview
     id="base"
     pagecolor="#282c2e"
     bordercolor="#666666"
     borderopacity="1.0"
     inkscape:pageopacity="0"
     inkscape:pageshadow="2"
     inkscape:zoom="5.7039999"
     inkscape:cx="27.787518"
     inkscape:cy="32.87167"
     inkscape:document-units="px"
     inkscape:current-layer="layer1"
     showgrid="false"
     units="px"
     inkscape:window-width="1306"
     inkscape:window-height="704"
     inkscape:window-x="60"
     inkscape:window-y="27"
     inkscape:window-maximized="1"
     inkscape:snap-global="false"
     inkscape:pagecheckerboard="0"
     width="50px" />
  <metadata
     id="metadata5">
    <rdf:RDF>
      <cc:Work
         rdf:about="">
        <dc:format>image/svg+xml</dc:format>
        <dc:type
           rdf:resource="http://purl.org/dc/dcmitype/StillImage" />
      </cc:Work>
    </rdf:RDF>
  </metadata>
  <g
     inkscape:groupmode="layer"
     id="layer4"
     inkscape:label="Background"
     style="display:inline"
     transform="translate(0,15.345834)" />
  <g
     inkscape:label="Drawing"
     inkscape:groupmode="layer"
     id="layer1"
     transform="translate(0,-230.85417)"
     style="display:inline">
    <path
       id="rect5875"
       style="fill:#ffffff;fill-opacity:0.989641;stroke-width:1.46079;stroke-linejoin:bevel"
       d="M 25 0 C 15.42238 0 7.7109375 7.7114753 7.7109375 17.289062 C 7.7109375 26.866687 25 50 25 50 C 25 50 42.289063 26.866687 42.289062 17.289062 C 42.289062 7.7114753 34.577619 0 25 0 z M 25 8.0117188 A -8.677276 8.677276 0 0 1 33.677734 16.689453 A -8.677276 8.677276 0 0 1 25 25.367188 A -8.677276 8.677276 0 0 1 16.322266 16.689453 A -8.677276 8.677276 0 0 1 25 8.0117188 z "
       transform="matrix(0.26458334,0,0,0.26458334,0,230.85417)" />
  </g>
</svg>
