<?xml version="1.0" encoding="UTF-8" standalone="no"?>
<!-- Created with Inkscape (http://www.inkscape.org/) -->

<svg
   width="200"
   height="200"
   viewBox="0 0 52.916667 52.916667"
   version="1.1"
   id="svg8"
   sodipodi:docname="site_logo.svg"
   inkscape:version="1.1.2 (08b2f3d93c, 2022-04-05)"
   inkscape:export-filename="/home/albert/Documents/Coding/Albert-C-Ong.github.io/assets/site_logo.png"
   inkscape:export-xdpi="96"
   inkscape:export-ydpi="96"
   xmlns:inkscape="http://www.inkscape.org/namespaces/inkscape"
   xmlns:sodipodi="http://sodipodi.sourceforge.net/DTD/sodipodi-0.dtd"
   xmlns="http://www.w3.org/2000/svg"
   xmlns:svg="http://www.w3.org/2000/svg"
   xmlns:rdf="http://www.w3.org/1999/02/22-rdf-syntax-ns#"
   xmlns:cc="http://creativecommons.org/ns#"
   xmlns:dc="http://purl.org/dc/elements/1.1/">
  <defs
     id="defs2" />
  <sodipodi:namedview
     id="base"
     pagecolor="#282c2e"
     bordercolor="#666666"
     borderopacity="1.0"
     inkscape:pageopacity="0"
     inkscape:pageshadow="2"
     inkscape:zoom="2.0166685"
     inkscape:cx="251.65266"
     inkscape:cy="43.38839"
     inkscape:document-units="px"
     inkscape:current-layer="layer1"
     showgrid="false"
     units="px"
     inkscape:window-width="1848"
     inkscape:window-height="1016"
     inkscape:window-x="72"
     inkscape:window-y="27"
     inkscape:window-maximized="1"
     inkscape:snap-global="false"
     inkscape:pagecheckerboard="0"
     width="200px" />
  <metadata
     id="metadata5">
    <rdf:RDF>
      <cc:Work
         rdf:about="">
        <dc:format>image/svg+xml</dc:format>
        <dc:type
           rdf:resource="http://purl.org/dc/dcmitype/StillImage" />
      </cc:Work>
    </rdf:RDF>
  </metadata>
  <g
     inkscape:groupmode="layer"
     id="layer4"
     inkscape:label="Background"
     style="display:inline"
     transform="translate(0,15.345834)" />
  <g
     inkscape:label="Drawing"
     inkscape:groupmode="layer"
     id="layer1"
     transform="translate(0,-230.85417)"
     style="display:inline">
    <g
       id="g6660"
       transform="matrix(5.7715868,0,0,5.7715868,-160.35658,-1106.343)">
      <path
         id="flowRoot3889-8-2-3"
         style="font-style:normal;font-variant:normal;font-weight:normal;font-stretch:normal;font-size:40px;line-height:1.25;font-family:'Franklin Gothic Medium';-inkscape-font-specification:'Franklin Gothic Medium, Normal';font-variant-ligatures:normal;font-variant-caps:normal;font-variant-numeric:normal;font-feature-settings:normal;text-align:center;letter-spacing:0px;word-spacing:0px;writing-mode:lr-tb;text-anchor:middle;display:inline;fill:#ffffff;fill-opacity:1;stroke:none;stroke-width:0.850911"
         d="m 61.552734,16.970703 c -0.03137,0 -0.06055,0.0037 -0.0918,0.0039 l 1.21875,3.195313 c 1.291134,0.242982 2.286922,0.899313 2.982421,1.978516 0.897592,1.382393 1.347657,3.293752 1.347657,5.736328 0,3.003848 -0.544301,5.07737 -1.63086,6.220703 -1.086558,1.143333 -2.415543,1.714843 -3.986328,1.714843 -1.771562,0 -3.135153,-0.660438 -4.091797,-1.980468 -0.944833,-1.330424 -1.416015,-3.278401 -1.416015,-5.845703 0,-0.36746 0.02887,-0.691266 0.04687,-1.033203 L 55.44335,25.677728 h -4.097656 c -0.115044,0.700247 -0.173828,1.429532 -0.173828,2.191407 0,3.118181 0.890455,5.737058 2.673828,7.857421 1.795183,2.120364 4.299286,3.181641 7.511719,3.181641 3.12976,0 5.63963,-1.008966 7.529297,-3.025391 1.901477,-2.026818 2.853515,-4.682312 2.853515,-7.966796 0,-3.128576 -0.915479,-5.73176 -2.746093,-7.810547 -1.818804,-2.089182 -4.299836,-3.134766 -7.441407,-3.134766 z"
         transform="matrix(0.26458333,0,0,0.26458333,0,230.85417)" />
      <g
         aria-label="A"
         transform="matrix(0.23998765,0,0,0.21120481,-31.547956,195.05957)"
         id="flowRoot3889-8-4-3"
         style="font-size:40px;font-family:'Franklin Gothic Medium';-inkscape-font-specification:'Franklin Gothic Medium, Normal';text-align:center;letter-spacing:0px;word-spacing:0px;text-anchor:middle;fill:#242424;stroke:#242424;stroke-width:4.88791">
        <g
           id="path3554-5">
          <path
             style="color:#000000;-inkscape-font-specification:'Franklin Gothic Medium, Normal';stroke:none;-inkscape-stroke:none"
             d="m 201.60645,205.55056 h -5.13672 l -2.12891,-6.34766 h -10.25391 l -2.08984,6.34766 h -4.10156 l 8.84765,-26.66016 h 5.91797 z m -8.55469,-10.19532 -3.88672,-11.89453 -3.88672,11.89453 z"
             id="path6133" />
        </g>
      </g>
      <flowRoot
         transform="matrix(0.23998765,0,0,0.21120483,-31.547958,195.05957)"
         style="font-style:normal;font-variant:normal;font-weight:normal;font-stretch:normal;font-size:40px;line-height:1.25;font-family:'Franklin Gothic Medium';-inkscape-font-specification:'Franklin Gothic Medium, Normal';font-variant-ligatures:normal;font-variant-caps:normal;font-variant-numeric:normal;font-feature-settings:normal;text-align:center;letter-spacing:0px;word-spacing:0px;writing-mode:lr-tb;text-anchor:middle;display:inline;fill:#ffffff;fill-opacity:1;stroke:none"
         id="flowRoot3889-8-6"
         xml:space="preserve"><flowRegion
           style="font-style:normal;font-variant:normal;font-weight:normal;font-stretch:normal;font-size:40px;font-family:'Franklin Gothic Medium';-inkscape-font-specification:'Franklin Gothic Medium, Normal';font-variant-ligatures:normal;font-variant-caps:normal;font-variant-numeric:normal;font-feature-settings:normal;text-align:center;writing-mode:lr-tb;text-anchor:middle;fill:#ffffff"
           id="flowRegion3891-7-2"><rect
             style="font-style:normal;font-variant:normal;font-weight:normal;font-stretch:normal;font-size:40px;font-family:'Franklin Gothic Medium';-inkscape-font-specification:'Franklin Gothic Medium, Normal';font-variant-ligatures:normal;font-variant-caps:normal;font-variant-numeric:normal;font-feature-settings:normal;text-align:center;writing-mode:lr-tb;text-anchor:middle;fill:#ffffff"
             y="169.08606"
             x="156.57364"
             height="45.999386"
             width="66.490952"
             id="rect3893-2-91" /></flowRegion><flowPara
           id="flowPara3895-6-2">A</flowPara></flowRoot>
    </g>
    <rect
       style="display:inline;fill:#242424;fill-opacity:1;stroke:none;stroke-width:0.252884"
       id="rect948-7"
       width="52.916668"
       height="52.916668"
       x="74.37075"
       y="239.09152"
       inkscape:export-filename="/home/albert/Documents/Coding/Albert-C-Ong.github.io/assets/site_logo_redux_2.png"
       inkscape:export-xdpi="96"
       inkscape:export-ydpi="96" />
    <g
       id="g10135"
       style="display:inline">
      <rect
         style="fill:none;stroke:none;stroke-width:12.4902;stroke-miterlimit:4;stroke-dasharray:none;stroke-opacity:1"
         id="rect4064"
         width="19.32762"
         height="9.8314781"
         x="76.174828"
         y="276.53528" />
      <circle
         style="display:inline;fill:none;stroke:#ffffff;stroke-width:4.7625;stroke-miterlimit:4;stroke-dasharray:none"
         id="circle13447-1"
         cx="109.9757"
         cy="272.32117"
         r="14.463771" />
      <path
         style="display:inline;fill:none;stroke:#242424;stroke-width:11.9062;stroke-linecap:butt;stroke-linejoin:bevel;stroke-miterlimit:4;stroke-dasharray:none;stroke-opacity:1"
         d="M 94.615003,244.82205 112.23,275.27504"
         id="path13441-1-5"
         sodipodi:nodetypes="cc" />
      <path
         style="display:inline;fill:none;stroke:#ffffff;stroke-width:4.7625;stroke-linecap:butt;stroke-linejoin:bevel;stroke-miterlimit:4;stroke-dasharray:none;stroke-opacity:1"
         d="M 77.00001,275.27504 94.615003,244.82205 112.23,275.27504"
         id="path13441-1"
         sodipodi:nodetypes="ccc" />
      <rect
         style="fill:#242424;fill-opacity:1;stroke:none;stroke-width:4.41141;stroke-miterlimit:4;stroke-dasharray:none;stroke-opacity:1"
         id="rect4088"
         width="7.9857922"
         height="3.7254033"
         x="74.37075"
         y="273.83221" />
      <rect
         style="display:inline;fill:#242424;fill-opacity:1;stroke:none;stroke-width:5.33821;stroke-miterlimit:4;stroke-dasharray:none;stroke-opacity:1"
         id="rect4088-9"
         width="11.693733"
         height="3.7254033"
         x="106.05146"
         y="273.83221" />
    </g>
    <g
       id="g9862"
       style="display:inline"
       transform="translate(-150.95074,-9.0849752)">
      <path
         id="circle13447-1-7"
         style="color:#000000;fill:#ffffff;stroke-width:3.77953;-inkscape-stroke:none"
         d="m 704.63086,93.060547 c -2.8643,0 -5.68498,0.194577 -8.45117,0.564453 l 10.10351,17.46484 c 24.55331,0.8623 44.01172,20.85899 44.01172,45.63282 0,25.32733 -20.33673,45.67187 -45.66406,45.67187 -25.32733,0 -45.67188,-20.34454 -45.67188,-45.67187 0,-9.20719 2.69094,-17.75335 7.33008,-24.9043 l -9.70508,-16.7832 c -9.72285,11.18373 -15.62109,25.77041 -15.62109,41.6875 0,35.05526 28.61274,63.66796 63.66797,63.66796 35.05527,0 63.66211,-28.6127 63.66211,-63.66796 0,-35.05523 -28.60684,-63.662113 -63.66211,-63.662113 z"
         transform="matrix(0.26458334,0,0,0.26458334,0,230.85417)" />
      <path
         id="path13441-1-6"
         style="color:#000000;fill:#ffffff;stroke-width:3.77953;stroke-linejoin:bevel;-inkscape-stroke:none"
         d="M 638.78516,48.283203 572.75195,162.4375 h 20.79102 l 53.0293,-91.677734 53.02929,91.677734 h 20.79102 L 654.35938,48.283203 Z"
         transform="matrix(0.26458334,0,0,0.26458334,0,230.85417)" />
    </g>
  </g>
</svg>
