<?xml version="1.0" encoding="UTF-8" standalone="no"?>
<!-- Created with Inkscape (http://www.inkscape.org/) -->

<svg
   width="50"
   height="50"
   viewBox="0 0 13.229166 13.229167"
   version="1.1"
   id="svg5"
   inkscape:version="1.2.2 (732a01da63, 2022-12-09, custom)"
   sodipodi:docname="site_icons.svg"
   inkscape:export-filename="../bb1dbc46/email_icon.png"
   inkscape:export-xdpi="96"
   inkscape:export-ydpi="96"
   xmlns:inkscape="http://www.inkscape.org/namespaces/inkscape"
   xmlns:sodipodi="http://sodipodi.sourceforge.net/DTD/sodipodi-0.dtd"
   xmlns="http://www.w3.org/2000/svg"
   xmlns:svg="http://www.w3.org/2000/svg">
  <sodipodi:namedview
     id="namedview7"
     pagecolor="#505050"
     bordercolor="#eeeeee"
     borderopacity="1"
     inkscape:pageshadow="0"
     inkscape:pageopacity="0"
     inkscape:pagecheckerboard="0"
     inkscape:document-units="mm"
     showgrid="false"
     units="px"
     inkscape:zoom="2.6809744"
     inkscape:cx="5.5949807"
     inkscape:cy="66.58027"
     inkscape:window-width="1292"
     inkscape:window-height="704"
     inkscape:window-x="0"
     inkscape:window-y="0"
     inkscape:window-maximized="1"
     inkscape:current-layer="layer3"
     inkscape:snap-global="false"
     inkscape:showpageshadow="2"
     inkscape:deskcolor="#505050" />
  <defs
     id="defs2" />
  <g
     inkscape:label="github logo"
     inkscape:groupmode="layer"
     id="layer1"
     style="display:none">
    <path
       style="fill:#a9a9a9;fill-opacity:1;stroke-width:0.017259"
       d="m 8.553918,13.062604 c -0.011378,-0.0038 -0.038051,-0.01138 -0.063324,-0.0153 -0.059914,-0.01138 -0.1463447,-0.08644 -0.1820142,-0.154706 -0.026719,-0.04853 -0.026719,-0.156586 -0.022757,-1.063699 0.00375,-1.054088 -0.00375,-1.222937 -0.069409,-1.475692 C 8.1659978,10.158328 8.0484499,9.9233191 7.943024,9.8057871 7.8406616,9.6913031 7.8228059,9.7057041 8.1186026,9.6643451 8.7299817,9.5786651 9.2872951,9.3825961 9.6972966,9.1089301 10.028717,8.8874881 10.36184,8.4945531 10.537774,8.1169671 10.757334,7.6461091 10.850988,7.1546242 10.8502,6.4786679 10.84978,6.1036606 10.8464,6.0353375 10.81038,5.8746072 10.71445,5.4350254 10.526005,5.0416327 10.264445,4.7373457 c -0.05308,-0.06179 -0.07619,-0.1023634 -0.06862,-0.1205684 0.0074,-0.015295 0.03017,-0.1016219 0.05308,-0.1918587 0.07961,-0.3109364 0.08529,-0.7151597 0.01534,-1.0557736 -0.03022,-0.1452019 -0.124373,-0.4439729 -0.150544,-0.4759359 -0.01138,-0.015339 -0.07015,-0.022755 -0.1774584,-0.022755 -0.374615,0 -0.9135083,0.2112026 -1.499067,0.5874184 l -0.1531718,0.0986 -0.1228416,-0.030214 C 7.9780102,3.4784694 7.6356649,3.4140077 7.3823012,3.3795225 7.0979267,3.3410075 6.2360156,3.3347876 5.9584199,3.3681451 5.692251,3.4022773 5.3164024,3.4690144 5.1362943,3.5156275 L 4.9785677,3.5567654 4.7738012,3.4285803 C 4.194924,3.0663272 3.6503891,2.8616291 3.3004092,2.8741796 l -0.146741,0.00376 -0.030173,0.064457 c -0.015341,0.034132 -0.050065,0.132341 -0.07396,0.2153617 -0.1315527,0.4537206 -0.1349663,1.0092115 -0.00742,1.375305 l 0.034136,0.1020093 -0.047398,0.059521 C 2.7918375,4.992229 2.6254491,5.2842488 2.5327799,5.5656348 2.4292798,5.8795926 2.4136997,5.9995922 2.4129557,6.4849459 2.41212,6.9893226 2.4317507,7.1818291 2.5327799,7.5722641 c 0.2419239,0.950746 0.8302789,1.578886 1.7774936,1.897431 0.2699786,0.09063 0.8565982,0.216891 1.0089473,0.216891 0.026719,0 0.051203,0.0038 0.056893,0.01138 0.00379,0.0038 -0.030173,0.05803 -0.07619,0.11641 -0.1190825,0.146737 -0.2168914,0.3571979 -0.2711165,0.5817299 l -0.045514,0.188836 -0.1403054,0.05081 C 4.4586576,10.774918 4.0279517,10.776056 3.7256735,10.639514 3.4700953,10.5235 3.2893524,10.357019 3.0863475,10.04982 3.0105029,9.9349381 2.9054712,9.8082921 2.7989096,9.7025141 2.6567247,9.5614621 2.6059131,9.5235671 2.4694174,9.4568261 2.2737536,9.3605051 2.116422,9.3313131 1.9440333,9.3582251 c -0.1494081,0.02276 -0.1968015,0.05462 -0.1968015,0.130457 0,0.07659 0.096325,0.177065 0.2957529,0.308269 0.2642893,0.174049 0.4815156,0.4832959 0.7357897,1.0476599 0.1733029,0.384243 0.5360793,0.63379 1.0407982,0.715654 0.2684446,0.04376 0.8380905,0.02667 1.0993799,-0.03413 l 0.039387,-0.0074 -0.0038,0.680997 c -0.00379,0.656845 -0.00742,0.68263 -0.040677,0.728586 -0.068621,0.09211 -0.1213581,0.117944 -0.2544402,0.124376 -0.1050318,0.0038 -0.1482704,-0.0025 -0.2794731,-0.04893 C 2.5802452,12.367096 1.1188678,10.936585 0.43089414,9.1381541 0.13855476,8.3737401 -3.939283e-4,7.6116011 -1.4830023e-7,6.7736587 3.762617e-4,6.0912213 0.08415725,5.5083892 0.27413372,4.8708095 0.90546014,2.7512572 2.5911206,1.0644636 4.7077496,0.43419612 c 0.6431601,-0.1914625 1.2219308,-0.2749215 1.9071382,-0.2749215 0.8436268,0 1.5997751,0.1376379 2.3644965,0.4304567 C 11.342935,1.49471 12.961518,3.6332951 13.20908,6.1782806 c 0.02672,0.2676977 0.02672,0.9062259 3.82e-4,1.1822275 -0.184313,1.967046 -1.209419,3.7340359 -2.815378,4.8533239 -0.6146784,0.428398 -1.65707,0.911159 -1.8374803,0.850945 z"
       id="path6173"
       sodipodi:nodetypes="csssssssscsssssssscsssscsscssscssssssssscssssssssssscssscscssssscscc" />
  </g>
  <g
     inkscape:groupmode="layer"
     id="layer2"
     inkscape:label="email logo"
     style="display:none">
    <path
       id="rect4271"
       style="display:inline;fill:#a9a9a9;fill-opacity:1;stroke:none;stroke-width:0.719347;stroke-linecap:square;stroke-linejoin:round;stroke-miterlimit:4;stroke-dasharray:none;stroke-opacity:1"
       d="m 1.5721996,2.3541307 c -0.4125451,0 -0.78717501,0.1573087 -1.06706171,0.415466 L 6.6151821,7.062349 12.724629,2.7701936 C 12.444646,2.5115516 12.069951,2.3541307 11.656971,2.3541307 Z M 0.06874887,3.4618412 C 0.02377247,3.6084992 2.7333333e-7,3.7639489 2.7333333e-7,3.9257286 V 9.3028783 C 2.7333333e-7,9.6151029 0.09055457,9.9052389 0.24629109,10.149353 L 4.3692714,6.4836862 Z M 13.16042,3.462998 8.8581025,6.4854411 12.983474,10.14812 c 0.1553,-0.2438811 0.245692,-0.5335361 0.245692,-0.8452799 V 3.9256904 c 0,-0.1613228 -0.02401,-0.3163965 -0.06875,-0.4626924 z M 5.0555398,6.9654693 0.85664099,10.70347 C 1.0710945,10.812788 1.314107,10.875036 1.5721996,10.875036 H 11.656971 c 0.258378,0 0.501528,-0.06262 0.716155,-0.172164 L 8.1718364,6.9672623 6.6151821,8.0612242 Z" />
  </g>
  <g
     inkscape:groupmode="layer"
     id="layer3"
     inkscape:label="location icon"
     style="display:inline">
    <path
       id="path4585"
       style="display:inline;fill:#a9a9a9;fill-opacity:1;stroke:none;stroke-width:0.886292;stroke-linecap:square;stroke-linejoin:round;stroke-miterlimit:4;stroke-dasharray:none;stroke-opacity:1"
       d="m 6.6145838,0.69565302 c -2.0395352,0 -3.6927202,1.65318938 -3.6927202,3.69272018 0,2.039537 3.3584226,7.3823068 3.6927202,7.3823068 0.3342977,0 3.6927192,-5.3427698 3.6927192,-7.3823068 0,-2.0395308 -1.6531848,-3.69272018 -3.6927192,-3.69272018 z m 0,1.76740608 c 0.9515909,0 1.7177523,0.7661613 1.7177523,1.7177521 0,0.9515916 -0.7661614,1.7173055 -1.7177523,1.7173055 -0.9515916,0 -1.7177521,-0.7657139 -1.7177521,-1.7173055 0,-0.9515908 0.7661605,-1.7177521 1.7177521,-1.7177521 z"
       inkscape:export-filename="../eb176e46/location_icon.png"
       inkscape:export-xdpi="96"
       inkscape:export-ydpi="96" />
  </g>
  <g
     inkscape:groupmode="layer"
     id="layer4"
     inkscape:label="phone icon"
     sodipodi:insensitive="true"
     style="display:none">
    <path
       style="display:inline;fill:#ffffff;fill-opacity:1;stroke-width:0.00735129"
       d="m 4.0813287,13.219244 c -0.3383509,-0.04126 -0.6399903,-0.182505 -0.875643,-0.41089 -0.1965349,-0.19022 -0.324322,-0.411341 -0.3876186,-0.669191 -0.042481,-0.173758 -0.039611,0.209899 -0.039611,-5.5245221 0,-5.69260775 -0.0024,-5.3501466 0.0367,-5.5134962 C 2.8597236,0.91476515 2.945011,0.73490105 3.060132,0.58305091 3.1948949,0.40578836 3.3788421,0.25559317 3.5831731,0.15632081 3.7267222,0.08683411 3.8358629,0.05138849 4.0095515,0.01837944 4.0902665,0.00435484 4.0920405,0.00435484 6.5567798,6.60837e-4 8.2324339,-0.00100916 9.0507594,5.89887e-4 9.1093394,0.00420884 c 0.184278,0.0177186 0.3600943,0.0645718 0.5256081,0.14354913 0.1670686,0.0800052 0.292015,0.16954899 0.4218165,0.30253477 0.200084,0.20462209 0.318711,0.43357551 0.37924,0.73040856 0.01073,0.058958 0.01403,0.3729721 0.01403,5.3774873 0.0019,3.8409334 1.74e-4,5.3374104 -0.007,5.3958494 -0.04213,0.419534 -0.273777,0.791197 -0.6431872,1.031801 -0.1375689,0.0895 -0.3190409,0.165996 -0.482187,0.202515 -0.1937248,0.04352 -0.052655,0.04144 -2.715595,0.04044 -2.0104966,-4.91e-4 -2.4552678,-0.0017 -2.523326,-0.01073 z M 6.7799731,12.7313 C 7.0621638,12.65864 7.2608275,12.415066 7.275113,12.124444 7.282103,11.989312 7.254086,11.872414 7.188054,11.755355 7.14382,11.676745 7.0297717,11.56266 6.9514945,11.518796 c -0.33802,-0.18989 -0.7548682,-0.06598 -0.9243285,0.274807 -0.052979,0.106704 -0.067754,0.169176 -0.068454,0.290282 -9.11e-4,0.143923 0.02806,0.250627 0.1024926,0.365293 0.054763,0.08566 0.1684763,0.187083 0.2639524,0.235525 0.039225,0.02103 0.1446229,0.05266 0.1947975,0.06074 0.061441,0.01073 0.1940984,0.0017 0.259744,-0.01403 z m 2.9402273,-1.782283 c 0.055462,-0.01772 0.1039013,-0.05719 0.1295201,-0.108811 l 0.02103,-0.04493 V 6.6015276 c 0,-3.0954024 -0.0022,-4.2009797 -0.007,-4.2214417 -0.01402,-0.046665 -0.057236,-0.096179 -0.1053014,-0.120734 L 9.7149297,2.2383254 H 6.6158086 3.5167219 l -0.037524,0.021027 c -0.049472,0.024752 -0.09548,0.078972 -0.1095101,0.1260152 -0.010727,0.031796 -0.010727,0.5282356 -0.010727,4.2135776 0,3.6628088 0.00136,4.1810418 0.010727,4.2131238 0.017719,0.06037 0.074068,0.115122 0.1424764,0.139675 0.04126,0.01402 6.1587927,0.01402 6.2076849,-1.08e-4 z M 7.6705705,1.10036 C 7.7337435,1.082641 7.784289,1.017506 7.7740961,0.96629635 c -0.00699,-0.0367 -0.037524,-0.075101 -0.072294,-0.091974 L 7.670007,0.86029755 H 6.6208549 c -0.9303286,0 -1.0522261,0.00146 -1.0763727,0.010727 -0.1161938,0.048439 -0.1091366,0.18497705 0.014035,0.22851085 0.035489,0.010727 2.068198,0.014025 2.1143541,0.00167 z"
       id="path11638" />
  </g>
</svg>
